# xmcd
#
# Track frame offsets: 
#        150
#        12825
#        24900
#        41325
#        53175
#        62925
#        82200
#        99300
#        113925
#        125550
#        145950
#        159075
#        175125
#        188100
#        209775
#        221100
#
# Disc length: 3133 seconds
#
# Revision: 4
# Processed by: cddbd v1.5.2PL0 Copyright (c) Steve Scherf et al.
# Submitted via: ExactAudioCopy v1.0b3
#
DISCID=e40c3b10
DTITLE=Eddie Boyd - Eddie Boyd and His Blues Band
DYEAR=1967
DGENRE=Blues
TTITLE0=Too Bad - Part 1
TTITLE1=Dust My Broom
TTITLE2=Unfair Lovers
TTITLE3=Key To The Highway
TTITLE4=Vacation From The Blues
TTITLE5=Steakhouse Rock
TTITLE6=Letter Missin' Blues
TTITLE7=Aint' Doin' Too Bad
TTITLE8=Blue Coat Man
TTITLE9=The Train Is Coming
TTITLE10=Save Her, Doctor
TTITLE11=Rack 'em Back
TTITLE12=Tood Bad - Part 2
TTITLE13=The Big Bell
TTITLE14=Pinetop's Boogie Woogie
TTITLE15=Night Time Is The Right Time
EXTD=YEAR: 1967
EXTT0=
EXTT1=
EXTT2=
EXTT3=
EXTT4=
EXTT5=
EXTT6=
EXTT7=
EXTT8=
EXTT9=
EXTT10=
EXTT11=
EXTT12=
EXTT13=
EXTT14=
EXTT15=
PLAYORDER=
